name Walk6.mot
datacolumns 19
datarows 25
range 2.55500000 2.57900000
endheader

                time	   L_ground_force_vx	   L_ground_force_vy	   L_ground_force_vz	   L_ground_force_px	   L_ground_force_py	   L_ground_force_pz	   R_ground_force_vx	   R_ground_force_vy	   R_ground_force_vz	   R_ground_force_px	   R_ground_force_py	   R_ground_force_pz	   L_ground_torque_x	   L_ground_torque_y	   L_ground_torque_z	   R_ground_torque_x	   R_ground_torque_y	   R_ground_torque_z	
          2.55500000	         47.22717151	        958.33516049	         70.44753903	         -0.16642756	          0.00000000	         -0.08818750	          0.00080344	         -0.01337060	         -0.00012615	          0.00002542	          0.00000000	          0.00000564	          0.00000000	         -1.20322996	          0.00000000	          0.00000000	         -0.00007427	          0.00000000	
          2.55600000	         47.38521846	        958.64153724	         70.56396265	         -0.16584458	          0.00000000	         -0.08828243	          0.00032528	         -0.00960776	          0.00032872	          0.00003094	          0.00000000	          0.00000686	          0.00000000	         -1.18837511	          0.00000000	          0.00000000	         -0.00000707	          0.00000000	
          2.55700000	         47.55030887	        958.94691212	         70.67818015	         -0.16526243	          0.00000000	         -0.08837645	         -0.00019865	         -0.00545559	          0.00082450	          0.00003684	          0.00000000	          0.00000816	          0.00000000	         -1.17380907	          0.00000000	          0.00000000	          0.00006639	          0.00000000	
          2.55800000	         47.72215628	        959.25159338	         70.79040991	         -0.16468108	          0.00000000	         -0.08846957	         -0.00077044	         -0.00089504	          0.00136295	          0.00004314	          0.00000000	          0.00000955	          0.00000000	         -1.15951465	          0.00000000	          0.00000000	          0.00014642	          0.00000000	
          2.55900000	         47.90045779	        959.55589348	         70.90087386	         -0.16410049	          0.00000000	         -0.08856183	         -0.00139219	          0.00409299	          0.00194580	          0.00004985	          0.00000000	          0.00001103	          0.00000000	         -1.14547388	          0.00000000	          0.00000000	          0.00023327	          0.00000000	
          2.56000000	         48.08489627	        959.86013064	         71.00979579	         -0.16352061	          0.00000000	         -0.08865325	         -0.00206596	          0.00952764	          0.00257478	          0.00005697	          0.00000000	          0.00001260	          0.00000000	         -1.13166803	          0.00000000	          0.00000000	          0.00032723	          0.00000000	
          2.56100000	         48.27514268	        960.16462912	         71.11739969	         -0.16294140	          0.00000000	         -0.08874383	         -0.00279381	          0.01542795	          0.00325157	          0.00006453	          0.00000000	          0.00001426	          0.00000000	         -1.11807770	          0.00000000	          0.00000000	          0.00042857	          0.00000000	
          2.56200000	         48.47085823	        960.46971851	         71.22390802	         -0.16236280	          0.00000000	         -0.08883362	         -0.00357776	          0.02181283	          0.00397783	          0.00007251	          0.00000000	          0.00001602	          0.00000000	         -1.10468259	          0.00000000	          0.00000000	          0.00053756	          0.00000000	
          2.56300000	         48.67169661	        960.77573296	         71.32954041	         -0.16178476	          0.00000000	         -0.08892262	         -0.00441978	          0.02870094	          0.00475514	          0.00008094	          0.00000000	          0.00001788	          0.00000000	         -1.09146147	          0.00000000	          0.00000000	          0.00065445	          0.00000000	
          2.56400000	         48.87730617	        961.08301044	         71.43451258	         -0.16120722	          0.00000000	         -0.08901086	         -0.00532179	          0.03611059	          0.00558505	          0.00008982	          0.00000000	          0.00001984	          0.00000000	         -1.07839197	          0.00000000	          0.00000000	          0.00077951	          0.00000000	
          2.56500000	         49.08733218	        961.39189259	         71.53903571	         -0.16063012	          0.00000000	         -0.08909836	         -0.00628565	          0.04405966	          0.00646901	          0.00009915	          0.00000000	          0.00002190	          0.00000000	         -1.06545053	          0.00000000	          0.00000000	          0.00091296	          0.00000000	
          2.56600000	         49.30141894	        961.70272498	         71.64331578	         -0.16005339	          0.00000000	         -0.08918512	         -0.00731311	          0.05256543	          0.00740840	          0.00010894	          0.00000000	          0.00002405	          0.00000000	         -1.05261248	          0.00000000	          0.00000000	          0.00105505	          0.00000000	
          2.56700000	         49.51921185	        962.01585785	         71.74755305	         -0.15947696	          0.00000000	         -0.08927118	         -0.00840584	          0.06164450	          0.00840448	          0.00011919	          0.00000000	          0.00002631	          0.00000000	         -1.03985208	          0.00000000	          0.00000000	          0.00120599	          0.00000000	
          2.56800000	         49.74035918	        962.33164733	         71.85194151	         -0.15890078	          0.00000000	         -0.08935655	         -0.00956541	          0.07131267	          0.00945842	          0.00012990	          0.00000000	          0.00002867	          0.00000000	         -1.02714272	          0.00000000	          0.00000000	          0.00136596	          0.00000000	
          2.56900000	         49.96451342	        962.65045691	         71.95666806	         -0.15832476	          0.00000000	         -0.08944125	         -0.01079322	          0.08158474	          0.01057123	          0.00014106	          0.00000000	          0.00003113	          0.00000000	         -1.01445716	          0.00000000	          0.00000000	          0.00153517	          0.00000000	
          2.57000000	         50.19133256	        962.97265938	         72.06191171	         -0.15774883	          0.00000000	         -0.08952529	         -0.01209055	          0.09247440	          0.01174379	          0.00015269	          0.00000000	          0.00003369	          0.00000000	         -1.00176775	          0.00000000	          0.00000000	          0.00171375	          0.00000000	
          2.57100000	         50.42048122	        963.29863862	         72.16784257	         -0.15717294	          0.00000000	         -0.08960868	         -0.01345850	          0.10399407	          0.01297681	          0.00016476	          0.00000000	          0.00003635	          0.00000000	         -0.98904672	          0.00000000	          0.00000000	          0.00190186	          0.00000000	
          2.57200000	         50.65163208	        963.62879114	         72.27462076	         -0.15659700	          0.00000000	         -0.08969145	         -0.01489799	          0.11615472	          0.01427081	          0.00017727	          0.00000000	          0.00003911	          0.00000000	         -0.97626651	          0.00000000	          0.00000000	          0.00209959	          0.00000000	
          2.57300000	         50.88446740	        963.96352653	         72.38239533	         -0.15602096	          0.00000000	         -0.08977359	         -0.01640971	          0.12896569	          0.01562612	          0.00019022	          0.00000000	          0.00004196	          0.00000000	         -0.96339998	          0.00000000	          0.00000000	          0.00230702	          0.00000000	
          2.57400000	         51.11868070	        964.30326671	         72.49130311	         -0.15544475	          0.00000000	         -0.08985513	         -0.01799414	          0.14243450	          0.01704285	          0.00020358	          0.00000000	          0.00004491	          0.00000000	         -0.95042069	          0.00000000	          0.00000000	          0.00252420	          0.00000000	
          2.57500000	         51.35397844	        964.64844422	         72.60146761	         -0.15486830	          0.00000000	         -0.08993608	         -0.01965149	          0.15656667	          0.01852083	          0.00021734	          0.00000000	          0.00004794	          0.00000000	         -0.93730305	          0.00000000	          0.00000000	          0.00275113	          0.00000000	
          2.57600000	         51.59008146	        964.99950015	         72.71299803	         -0.15429157	          0.00000000	         -0.09001645	         -0.02138168	          0.17136546	          0.02005967	          0.00023148	          0.00000000	          0.00005105	          0.00000000	         -0.92402237	          0.00000000	          0.00000000	          0.00298780	          0.00000000	
          2.57700000	         51.82672641	        965.35688272	         72.82598847	         -0.15371450	          0.00000000	         -0.09009625	         -0.02318436	          0.18683170	          0.02165866	          0.00024599	          0.00000000	          0.00005425	          0.00000000	         -0.91055491	          0.00000000	          0.00000000	          0.00323411	          0.00000000	
          2.57800000	         52.06366669	        965.72104659	         72.94051737	         -0.15313702	          0.00000000	         -0.09017549	         -0.02505879	          0.20296355	          0.02331678	          0.00026082	          0.00000000	          0.00005751	          0.00000000	         -0.89687785	          0.00000000	          0.00000000	          0.00348996	          0.00000000	
          2.57900000	         52.30067327	        966.09245312	         73.05664726	         -0.15255910	          0.00000000	         -0.09025420	         -0.02700392	          0.21975623	          0.02503269	          0.00027596	          0.00000000	          0.00006084	          0.00000000	         -0.88296924	          0.00000000	          0.00000000	          0.00375517	          0.00000000	
